<?xml version="1.0" encoding="UTF-8"?>
<svg width="24" height="24" viewBox="0 0 24 24" fill="none" xmlns="http://www.w3.org/2000/svg">
  <path d="M12 12m-8 0a8 3 0 1 0 16 0a8 3 0 1 0 -16 0" stroke="currentColor" stroke-width="2"/>
  <path d="M12 12m-3 0a3 3 0 1 0 6 0a3 3 0 1 0 -6 0" stroke="currentColor" stroke-width="2"/>
  <path d="M3 7v10c0 1.657 4.03 3 9 3s9-1.343 9-3V7" stroke="currentColor" stroke-width="2"/>
  <path d="M3 12c0 1.657 4.03 3 9 3s9-1.343 9-3" stroke="currentColor" stroke-width="2"/>
</svg>
