<?xml version="1.0" encoding="UTF-8"?>
<svg width="24" height="24" viewBox="0 0 512 512" fill="none" xmlns="http://www.w3.org/2000/svg">
    <path d="M458.667 85.333H53.333C23.936 85.333 0 109.269 0 138.667v234.667c0 29.397 23.936 53.333 53.333 53.333h405.333c29.397 0 53.333-23.936 53.333-53.333V138.667c.001-29.398-23.935-53.334-53.332-53.334z" fill="currentColor"/>
    <path d="M490.667 149.333H21.333c-11.776 0-21.333 9.557-21.333 21.333s9.557 21.333 21.333 21.333h469.333c11.776 0 21.333-9.557 21.333-21.333s-9.556-21.333-21.332-21.333zM96 298.667h-32c-11.776 0-21.333 9.557-21.333 21.333S52.224 341.333 64 341.333h32c11.776 0 21.333-9.557 21.333-21.333s-9.557-21.333-21.333-21.333zM202.667 298.667h-32c-11.776 0-21.333 9.557-21.333 21.333s9.557 21.333 21.333 21.333h32c11.776 0 21.333-9.557 21.333-21.333s-9.557-21.333-21.333-21.333zM309.333 298.667h-32c-11.776 0-21.333 9.557-21.333 21.333s9.557 21.333 21.333 21.333h32c11.776 0 21.333-9.557 21.333-21.333s-9.557-21.333-21.333-21.333zM416 298.667h-32c-11.776 0-21.333 9.557-21.333 21.333s9.557 21.333 21.333 21.333h32c11.776 0 21.333-9.557 21.333-21.333s-9.557-21.333-21.333-21.333z" fill="currentColor"/>
</svg>
